<svg xmlns="http://www.w3.org/2000/svg" viewBox="0 0 30 30">
  <defs>
    <radialGradient id="ba-bg" cx="50%" cy="33%" r="55%">
      <stop offset="0%"   stop-color="#22D3EE" stop-opacity="0.45"/>
      <stop offset="55%"  stop-color="#3B82F6" stop-opacity="0.12"/>
      <stop offset="100%" stop-color="#3B82F6" stop-opacity="0"/>
    </radialGradient>
    <radialGradient id="ba-orb" cx="50%" cy="35%" r="65%">
      <stop offset="0%"   stop-color="#FFFFFF"  stop-opacity="1"/>
      <stop offset="22%"  stop-color="#A5F3FC"  stop-opacity="0.96"/>
      <stop offset="52%"  stop-color="#22D3EE"  stop-opacity="0.88"/>
      <stop offset="80%"  stop-color="#3B82F6"  stop-opacity="0.5"/>
      <stop offset="100%" stop-color="#1D4ED8"  stop-opacity="0"/>
    </radialGradient>
  </defs>
  <rect width="30" height="30" rx="4" fill="#0A1628"/>
  <circle cx="15" cy="10" r="11" fill="url(#ba-bg)"/>
  <path d="M 1 30 L 1 20 A 14 14 0 0 1 29 20 L 29 30" stroke="#3B82F6" stroke-width="1.1" stroke-opacity="0.22" stroke-linecap="round" stroke-linejoin="round" fill="none"/>
  <path d="M 4 30 L 4 20.5 A 11 11 0 0 1 26 20.5 L 26 30" stroke="#3B82F6" stroke-width="1.1" stroke-opacity="0.4" stroke-linecap="round" stroke-linejoin="round" fill="none"/>
  <path d="M 7 30 L 7 21 A 8 8 0 0 1 23 21 L 23 30" stroke="#60A5FA" stroke-width="1.1" stroke-opacity="0.6" stroke-linecap="round" stroke-linejoin="round" fill="none"/>
  <path d="M 9.5 30 L 9.5 21.5 A 5.5 5.5 0 0 1 20.5 21.5 L 20.5 30" stroke="#22D3EE" stroke-width="1.1" stroke-opacity="0.78" stroke-linecap="round" stroke-linejoin="round" fill="none"/>
  <path d="M 12 30 L 12 22 A 3 3 0 0 1 18 22 L 18 30" stroke="#22D3EE" stroke-width="1" stroke-opacity="1" stroke-linecap="round" stroke-linejoin="round" fill="none"/>
  <circle cx="15" cy="10" r="4.5" fill="url(#ba-orb)"/>
  <circle cx="15" cy="10" r="2.2" fill="#22D3EE" fill-opacity="0.75"/>
  <circle cx="15" cy="10" r="1.1" fill="white" fill-opacity="0.95"/>
</svg>
